<svg xmlns="http://www.w3.org/2000/svg" width="107.712" height="36.72" viewBox="0 0 107.712 36.72"><g fill="#3F51B5"><path d="M3.808 4.93l7.31 12.58 7.378-12.58h3.332l-9.18 15.334v8.806h-3.06v-8.874L.442 4.93h3.366zM29.342 29.41c-1.338 0-2.556-.25-3.655-.748a8.731 8.731 0 0 1-2.822-2.006 9.003 9.003 0 0 1-1.819-2.924 9.592 9.592 0 0 1-.646-3.502c0-1.247.221-2.425.663-3.536a9.277 9.277 0 0 1 1.836-2.924 8.761 8.761 0 0 1 2.822-2.006c1.099-.498 2.306-.748 3.621-.748 1.314 0 2.527.25 3.638.748a8.727 8.727 0 0 1 2.839 2.006 9.266 9.266 0 0 1 1.836 2.924 9.478 9.478 0 0 1 .663 3.536 9.613 9.613 0 0 1-.646 3.502 8.89 8.89 0 0 1-1.836 2.924 8.947 8.947 0 0 1-2.839 2.006c-1.1.498-2.318.748-3.655.748zm-5.882-9.146c0 .93.153 1.791.459 2.584a6.583 6.583 0 0 0 1.258 2.074 5.922 5.922 0 0 0 1.87 1.394c.714.34 1.479.51 2.295.51s1.581-.17 2.295-.51a6.012 6.012 0 0 0 1.887-1.411c.544-.6.969-1.303 1.275-2.108a7.251 7.251 0 0 0 .459-2.601c0-.906-.153-1.762-.459-2.567-.306-.804-.731-1.507-1.275-2.108s-1.173-1.071-1.887-1.411-1.479-.51-2.295-.51-1.581.176-2.295.527a6.058 6.058 0 0 0-1.87 1.428 6.773 6.773 0 0 0-1.258 2.108 7.255 7.255 0 0 0-.459 2.601zM63.581 11.322h2.89L58.923 29.07H56.44l-3.57-8.67-3.536 8.67h-2.482l-7.548-17.748h2.856l6.12 14.79 2.992-7.378-3.06-7.378h2.482l2.176 5.678 2.176-5.678h2.482l-3.026 7.378 2.992 7.378 6.087-14.79zM76.501 29.41c-1.338 0-2.562-.244-3.672-.731a8.667 8.667 0 0 1-2.856-1.989 9.05 9.05 0 0 1-1.853-2.941 9.604 9.604 0 0 1-.663-3.553c0-1.246.221-2.425.663-3.536a8.972 8.972 0 0 1 1.87-2.924 8.896 8.896 0 0 1 2.873-1.989c1.11-.487 2.334-.731 3.672-.731s2.556.25 3.655.748a8.702 8.702 0 0 1 2.805 1.989c.77.828 1.365 1.791 1.785 2.89s.629 2.238.629 3.417c0 .25-.006.476-.017.68a3.818 3.818 0 0 1-.051.476H70.619c.068.884.272 1.689.612 2.414a6.117 6.117 0 0 0 3.179 3.094 5.527 5.527 0 0 0 2.193.442c.544 0 1.076-.074 1.598-.221a6.905 6.905 0 0 0 1.462-.595 5.075 5.075 0 0 0 1.207-.918c.351-.362.617-.77.799-1.224l2.584.714a6.522 6.522 0 0 1-1.207 1.802 8 8 0 0 1-1.768 1.411c-.669.397-1.411.709-2.227.935s-1.666.34-2.55.34zm6.086-10.404a6.405 6.405 0 0 0-.629-2.329 6.255 6.255 0 0 0-1.326-1.819 5.932 5.932 0 0 0-1.853-1.173c-.703-.283-1.451-.425-2.244-.425s-1.542.142-2.244.425a5.774 5.774 0 0 0-1.853 1.19 6.013 6.013 0 0 0-1.292 1.819 6.684 6.684 0 0 0-.595 2.312h12.036zM96.051 29.41c-1.224 0-2.358-.25-3.4-.748a8.414 8.414 0 0 1-2.686-2.006 9.241 9.241 0 0 1-1.751-2.924 9.814 9.814 0 0 1-.629-3.502c0-1.247.198-2.431.595-3.553a9.225 9.225 0 0 1 1.666-2.941 7.948 7.948 0 0 1 2.55-1.989c.986-.487 2.068-.731 3.247-.731 1.428 0 2.703.374 3.825 1.122s2.011 1.655 2.669 2.72V4.25h2.992v21.148c0 .703.317 1.065.952 1.088v2.584c-.317.045-.573.079-.765.102a4.934 4.934 0 0 1-.561.034 2.24 2.24 0 0 1-1.547-.595c-.442-.396-.663-.855-.663-1.377v-1.496a7.468 7.468 0 0 1-2.805 2.703 7.511 7.511 0 0 1-3.689.969zm.714-2.584c.544 0 1.105-.102 1.683-.306a6.578 6.578 0 0 0 1.632-.85c.51-.362.952-.788 1.326-1.275s.617-1.003.731-1.547v-5.1a5.647 5.647 0 0 0-.918-1.615 7.251 7.251 0 0 0-1.377-1.326 6.735 6.735 0 0 0-1.632-.884 4.9 4.9 0 0 0-1.717-.323c-.884 0-1.683.187-2.397.561s-1.326.873-1.836 1.496a6.789 6.789 0 0 0-1.173 2.142 7.649 7.649 0 0 0-.408 2.465c0 .884.158 1.729.476 2.533a6.622 6.622 0 0 0 1.292 2.091 6.228 6.228 0 0 0 1.921 1.411 5.497 5.497 0 0 0 2.397.527z"/></g></svg>